:FULLY-SPECIFIED
:FORCE-ALL-JOINTS-BE-3DOF
:DEGREES
17
root 7.78813 15.8671 -34.3548 7.50062 -2.4724 -5.11019
lfemur -43.1403 7.65981 -14.4467
ltibia 41.335 0 0
lfoot -8.22069 7.77842 0
ltoes -9.0602 0 0
rfemur 4.64023 5.4407 29.6103
rtibia 12.4876 0 0
rfoot -0.239551 0.977162 0
rtoes -11.2584 0 0
lowerback -6.06279 0.683997 1.8343
upperback -1.39515 0.693129 3.16667
thorax 1.93669 0.350483 2.30826
lowerneck -19.5235 -5.02967 -13.067
upperneck 14.2852 -6.34613 16.2442
head 8.65825 -2.15447 6.93754
lclavicle -7.93214e-15 -1.01122e-14 0
lhumerus -39.751 -4.16455 88.4983
lradius 25.6883 0 0
lwrist 4.46459 0 0
lhand -5.23513 -20.7215 0
lfingers 7.12502 0 0
lthumb 20.5401 7.89849 0
rclavicle -7.93214e-15 -1.01122e-14 0
rhumerus -41.4238 18.603 -87.8845
rradius 56.9108 0 0
rwrist -28.1655 0 0
rhand -32.3522 -29.4792 0
rfingers 7.12502 0 0
rthumb -5.58869 -59.3827 0
18
root 7.80827 15.8592 -34.2062 7.53261 -2.78235 -5.229
lfemur -43.3433 7.76159 -14.2896
ltibia 41.1251 0 0
lfoot -7.69584 7.73174 0
ltoes -8.83235 0 0
rfemur 5.83384 5.49957 29.5703
rtibia 11.5305 0 0
rfoot -0.257833 1.05832 0
rtoes -12.181 0 0
lowerback -6.2074 0.724679 1.9081
upperback -1.385 0.734925 3.21668
thorax 2.02618 0.371421 2.32455
lowerneck -19.5942 -5.01791 -13.0449
upperneck 14.3343 -6.32292 16.1889
head 8.68009 -2.14407 6.91857
lclavicle -9.1004e-15 -1.2245e-14 0
lhumerus -40.0655 -4.26103 88.6823
lradius 25.5475 0 0
lwrist 4.23199 0 0
lhand -4.57383 -20.5329 0
lfingers 7.12502 0 0
lthumb 21.1744 8.00778 0
rclavicle -9.1004e-15 -1.2245e-14 0
rhumerus -41.6411 18.6974 -88.1943
rradius 56.9705 0 0
rwrist -28.1329 0 0
rhand -32.2827 -29.7852 0
rfingers 7.12502 0 0
rthumb -5.52163 -59.6903 0
19
root 7.82841 15.8512 -34.0576 7.56425 -3.09521 -5.34736
lfemur -43.5432 7.86325 -14.1335
ltibia 40.9114 0 0
lfoot -7.16862 7.68498 0
ltoes -8.60163 0 0
rfemur 7.03086 5.55812 29.5281
rtibia 10.5749 0 0
rfoot -0.278995 1.13781 0
rtoes -13.1098 0 0
lowerback -6.35281 0.765324 1.98145
upperback -1.37481 0.776649 3.26692
thorax 2.11619 0.392322 2.34135
lowerneck -19.6658 -5.00591 -13.0225
upperneck 14.3847 -6.29927 16.1325
head 8.70238 -2.13351 6.89926
lclavicle -1.02785e-14 -1.43901e-14 0
lhumerus -40.3799 -4.35961 88.8673
lradius 25.4059 0 0
lwrist 3.9974 0 0
lhand -3.90888 -20.3434 0
lfingers 7.12502 0 0
lthumb 21.8122 8.11757 0
rclavicle -1.02785e-14 -1.43901e-14 0
rhumerus -41.8604 18.7917 -88.5064
rradius 57.0278 0 0
rwrist -28.099 0 0
rhand -32.2125 -30.0922 0
rfingers 7.12502 0 0
rthumb -5.45384 -59.9991 0
20
root 7.84854 15.8433 -33.909 7.59535 -3.41001 -5.46465
lfemur -43.7384 7.96428 -13.9794
ltibia 40.6944 0 0
lfoot -6.64111 7.63837 0
ltoes -8.36862 0 0
rfemur 8.22627 5.61604 29.4836
rtibia 9.62567 0 0
rfoot -0.303449 1.21495 0
rtoes -14.0414 0 0
lowerback -6.49849 0.805735 2.05393
upperback -1.3646 0.818094 3.31721
thorax 2.20639 0.413081 2.35868
lowerneck -19.7383 -4.99366 -12.9997
upperneck 14.4363 -6.2752 16.0751
head 8.72512 -2.1228 6.87962
lclavicle -1.14627e-14 -1.65395e-14 0
lhumerus -40.6928 -4.4602 89.0526
lradius 25.2641 0 0
lwrist 3.76159 0 0
lhand -3.24273 -20.1537 0
lfingers 7.12502 0 0
lthumb 22.4512 8.22741 0
rclavicle -1.14627e-14 -1.65395e-14 0
rhumerus -42.0808 18.8854 -88.8196
rradius 57.0821 0 0
rwrist -28.0638 0 0
rhand -32.1418 -30.399 0
rfingers 7.12502 0 0
rthumb -5.38554 -60.3075 0
21
root 7.86868 15.8354 -33.7604 7.62569 -3.72582 -5.58021
lfemur -43.9274 8.06418 -13.8282
ltibia 40.4744 0 0
lfoot -6.11535 7.5921 0
ltoes -8.13389 0 0
rfemur 9.41504 5.67299 29.4366
rtibia 8.68753 0 0
rfoot -0.331612 1.28906 0
rtoes -14.9727 0 0
lowerback -6.64389 0.845715 2.12512
upperback -1.35442 0.859048 3.36735
thorax 2.29646 0.433592 2.37654
lowerneck -19.8113 -4.98119 -12.9766
upperneck 14.4891 -6.25074 16.0168
head 8.74828 -2.11196 6.85969
lclavicle -1.26492e-14 -1.86852e-14 0
lhumerus -41.0028 -4.56271 89.2376
lradius 25.1226 0 0
lwrist 3.52529 0 0
lhand -2.57787 -19.9645 0
lfingers 7.12502 0 0
lthumb 23.089 8.33688 0
rclavicle -1.26492e-14 -1.86852e-14 0
rhumerus -42.3016 18.978 -89.133
rradius 57.1326 0 0
rwrist -28.0272 0 0
rhand -32.0707 -30.7043 0
rfingers 7.12502 0 0
rthumb -5.3169 -60.6146 0
22
root 7.88882 15.8275 -33.6119 7.65506 -4.04167 -5.69342
lfemur -44.1087 8.16244 -13.6808
ltibia 40.2517 0 0
lfoot -5.59341 7.54639 0
ltoes -7.89802 0 0
rfemur 10.5922 5.72865 29.3869
rtibia 7.76526 0 0
rfoot -0.363898 1.35949 0
rtoes -15.9002 0 0
lowerback -6.78847 0.885067 2.1946
upperback -1.3443 0.899304 3.41715
thorax 2.38605 0.453752 2.39495
lowerneck -19.8847 -4.9685 -12.9533
upperneck 14.5431 -6.22593 15.9576
head 8.77183 -2.10102 6.8395
lclavicle -1.38342e-14 -2.08194e-14 0
lhumerus -41.3084 -4.66705 89.4215
lradius 24.982 0 0
lwrist 3.28927 0 0
lhand -1.91677 -19.7767 0
lfingers 7.12502 0 0
lthumb 23.7231 8.44555 0
rclavicle -1.38342e-14 -2.08194e-14 0
rhumerus -42.5223 19.069 -89.4455
rradius 57.1787 0 0
rwrist -27.9891 0 0
rhand -31.9995 -31.0069 0
rfingers 7.12502 0 0
rthumb -5.24812 -60.9188 0
23
root 7.90896 15.8196 -33.4633 7.68325 -4.35662 -5.80363
lfemur -44.2807 8.25858 -13.5381
ltibia 40.0267 0 0
lfoot -5.07735 7.50144 0
ltoes -7.66158 0 0
rfemur 11.7526 5.78267 29.3344
rtibia 6.86363 0 0
rfoot -0.400722 1.42555 0
rtoes -16.8209 0 0
lowerback -6.9317 0.923591 2.26194
upperback -1.33429 0.938653 3.46641
thorax 2.47484 0.473454 2.41391
lowerneck -19.9584 -4.95561 -12.9297
upperneck 14.5982 -6.2008 15.8976
head 8.79576 -2.08999 6.81906
lclavicle -1.50139e-14 -2.29341e-14 0
lhumerus -41.608 -4.77313 89.6037
lradius 24.8427 0 0
lwrist 3.05426 0 0
lhand -1.26189 -19.5909 0
lfingers 7.12502 0 0
lthumb 24.3513 8.55299 0
rclavicle -1.50139e-14 -2.29341e-14 0
rhumerus -42.742 19.1579 -89.756
rradius 57.2197 0 0
rwrist -27.9494 0 0
rhand -31.9283 -31.3054 0
rfingers 7.12502 0 0
rthumb -5.17939 -61.2191 0
24
root 7.92909 15.8117 -33.3147 7.71004 -4.66971 -5.91022
lfemur -44.4421 8.35209 -13.4011
ltibia 39.7997 0 0
lfoot -4.56922 7.45745 0
ltoes -7.42514 0 0
rfemur 12.8913 5.83474 29.2787
rtibia 5.98741 0 0
rfoot -0.442499 1.48656 0
rtoes -17.7314 0 0
lowerback -7.07304 0.961092 2.32671
upperback -1.32442 0.976885 3.51494
thorax 2.5625 0.492594 2.43345
lowerneck -20.0322 -4.94252 -12.906
upperneck 14.6545 -6.17538 15.8369
head 8.82005 -2.0789 6.79842
lclavicle -1.61846e-14 -2.50215e-14 0
lhumerus -41.9002 -4.88087 89.7835
lradius 24.7053 0 0
lwrist 2.82101 0 0
lhand -0.615714 -19.4078 0
lfingers 7.12502 0 0
lthumb 24.9711 8.65878 0
rclavicle -1.61846e-14 -2.50215e-14 0
rhumerus -42.96 19.2444 -90.0635
rradius 57.2548 0 0
rwrist -27.9081 0 0
rhand -31.8573 -31.5987 0
rfingers 7.12502 0 0
rthumb -5.11091 -61.5141 0
